%% State diagram: Way of Working (essence-kernel#WayofWorking)
%% Kernel-alpha; alleen de states die in deze werkwijze daadwerkelijk gebruikt worden
%% zijn gekoppeld aan een activiteit.
stateDiagram-v2
    PrinciplesEstablished: Principles Established
    FoundationEstablished: Foundation Established
    InUse: In Use
    InPlace: In Place
    WorkingWell: Working Well
    Retired: Retired

    [*] --> PrinciplesEstablished
    PrinciplesEstablished --> FoundationEstablished : Richt governance in
    FoundationEstablished --> InUse
    InUse --> InPlace
    InPlace --> WorkingWell : Toets werking governance
    WorkingWell --> Retired
